# xmcd
#
# Track frame offsets:
#	150
#	14340
#	27387
#	44860
#	58845
#	73445
#	85912
#	99595
#	114290
#	124257
#	134657
#	145220
#	153900
#	165435
#	176365
#	188917
#	199640
#	210807
#	222925
#	233152
#	245330
#	256355
#	269005
#	281957
#	298067
#	309720
#	322032
#	331100
#	341405
#
# Disc length: 4710 seconds
#
# Revision: 1
# Processed by: cddbd v1.5PL3 Copyright (c) Steve Scherf et al.
# Submitted via: audiograbber 1.80
#
DISCID=c412641d
DTITLE=rose maddox - The One Rose disc 2
DYEAR=1900
DGENRE=
TTITLE0=That Glory Bound Train 
TTITLE1=Drifting Too Far From The Shore 
TTITLE2=When I Take My Vacation In Heaven 
TTITLE3=How Beautiful Heaven Must Be 
TTITLE4=I'll Reap My Harvest In Heaven 
TTITLE5=Smoke, Fire And Brimstone 
TTITLE6=Will The Circle Be Unbroken 
TTITLE7=Kneel At The Cross 
TTITLE8=There's A Better Times A Comin' 
TTITLE9=I Want To Live Again 
TTITLE10=Kissing My Pillow 
TTITLE11=Dime A Dozen 
TTITLE12=Loose Talk (& BUCK OWENS) 
TTITLE13=Mental Cruelty (& BUCK OWENS) 
TTITLE14=Conscience I'm Guilty 
TTITLE15=Read My Letter Once Again 
TTITLE16=Tall Men 
TTITLE17=Early In The Morning 
TTITLE18=There Ain't No Love 
TTITLE19=What Am I Living For 
TTITLE20=Stop The World (And Let Me Off) 
TTITLE21=Jim Dandy 
TTITLE22=North To Alaska 
TTITLE23=Lonely Street 
TTITLE24=Gotta Travel On 
TTITLE25=Just One More Time 
TTITLE26=Don't Tell Me Your Troubles 
TTITLE27=There Ain't No Love 
TTITLE28=Your Kind Of Lovin' Won't Do 
EXTD=
EXTT0=
EXTT1=
EXTT2=
EXTT3=
EXTT4=
EXTT5=
EXTT6=
EXTT7=
EXTT8=
EXTT9=
EXTT10=
EXTT11=
EXTT12=
EXTT13=
EXTT14=
EXTT15=
EXTT16=
EXTT17=
EXTT18=
EXTT19=
EXTT20=
EXTT21=
EXTT22=
EXTT23=
EXTT24=
EXTT25=
EXTT26=
EXTT27=
EXTT28=
PLAYORDER=
